<svg width="60" height="60" viewBox="0 0 60 60" fill="none" xmlns="http://www.w3.org/2000/svg">
    <g clip-path="url(#clip0_84_64)">
        <path d="M60 0H0V60H60V0Z" fill="white"/>
        <path d="M19.3886 32.6103C18.8541 32.6122 18.3663 32.306 18.1356 31.8238C17.9048 31.3416 17.9724 30.7697 18.3092 30.3546L32.0097 16.2389C32.2214 15.9946 32.574 15.9294 32.8591 16.0818C33.1441 16.2343 33.2856 16.5638 33.1999 16.8755L30.5428 25.2065C30.3838 25.6322 30.4438 26.1088 30.7035 26.4817C30.9631 26.8546 31.3893 27.0763 31.8437 27.0748H41.5309C42.0654 27.073 42.5532 27.3791 42.784 27.8613C43.0147 28.3435 42.9471 28.9154 42.6103 29.3305L28.9098 43.4462C28.6981 43.6905 28.3455 43.7558 28.0605 43.6033C27.7754 43.4508 27.6339 43.1213 27.7197 42.8096L30.3767 34.4786C30.5358 34.0529 30.4757 33.5763 30.2161 33.2034C29.9564 32.8305 29.5303 32.6089 29.0759 32.6103H19.3886Z" fill="black" stroke="black" stroke-width="5" stroke-linecap="round" stroke-linejoin="round"/>
    </g>
    <defs>
        <clipPath id="clip0_84_64">
            <rect width="60" height="60" rx="30" fill="white"/>
        </clipPath>
    </defs>
</svg>